<?xml version="1.0" encoding="UTF-8"?>
<svg width="100px" height="50px" viewBox="0 0 166 82" version="1.1" xmlns="http://www.w3.org/2000/svg" xmlns:xlink="http://www.w3.org/1999/xlink">
    <!-- Generator: Sketch 46.2 (44496) - http://www.bohemiancoding.com/sketch -->
    <title>ExportLogo</title>
    <desc>Created with Sketch.</desc>
    <defs>
        <path d="M-2.84217094e-14,76.2458625 L-2.84217094e-14,48.3529087 C-2.84217094e-14,45.3950208 2.53977023,43.0000478 5.67698691,43.0000478 C8.81420358,43.0000478 11.3534755,45.3950208 11.3534755,48.3529087 L11.3534755,76.2458625 C11.3534755,79.2042203 8.81420358,81.5996631 5.67698691,81.5996631 C2.53977023,81.5996631 -2.84217094e-14,79.2042203 -2.84217094e-14,76.2458625 Z M20.8323076,76.2302344 L20.8323076,48.2519976 C20.8323076,45.2850659 23.2132775,42.8827702 26.1543382,42.8827702 C29.0953989,42.8827702 31.4759017,45.2850659 31.4759017,48.2519976 L31.4759017,48.6761816 C33.9269413,45.4966866 37.0777441,42.5999809 42.4698445,42.5999809 C50.5227266,42.5999809 55.2141295,47.9696795 55.2141295,56.6597966 L55.2141295,76.2302344 C55.2141295,79.1976374 52.8336267,81.599933 49.892566,81.599933 C46.9515053,81.599933 44.5705354,79.1976374 44.5705354,76.2302344 L44.5705354,60.0509124 C44.5705354,54.9640031 42.1895655,52.3500867 38.1283232,52.3500867 C34.0670808,52.3500867 31.4759017,54.9640031 31.4759017,60.0509124 L31.4759017,76.2302344 C31.4759017,79.1976374 29.0953989,81.599933 26.1543382,81.599933 C23.2132775,81.599933 20.8323076,79.1976374 20.8323076,76.2302344 Z M101.056559,32.5626233 L101.056559,75.7448485 C101.056559,78.8188655 98.7489384,81.3069835 95.8990409,81.3069835 C93.0495962,81.3069835 90.7428812,78.8188655 90.7428812,75.7448485 L90.7428812,75.2321868 C88.2320201,78.8916146 84.7710424,81.599933 79.4111892,81.599933 C70.928942,81.599933 62.8545343,74.4270638 62.8545343,61.1798862 C62.8545343,48.078695 70.793599,40.9063141 79.4111892,40.9063141 C84.906838,40.9063141 88.2994653,43.6141442 90.7428812,46.7613987 L90.7428812,32.5626233 C90.7428812,29.4886062 93.0495962,27 95.8990409,27 C98.7489384,27 101.056559,29.4886062 101.056559,32.5626233 Z M110.058242,76.5910812 L110.058242,48.4084919 C110.058242,45.4198898 112.62209,43.0000478 115.789048,43.0000478 C118.955001,43.0000478 121.518849,45.4198898 121.518849,48.4084919 L121.518849,76.5910812 C121.518849,79.5801581 118.955001,82 115.789048,82 C112.62209,82 110.058242,79.5801581 110.058242,76.5910812 Z M161.836466,77.0569729 C158.403663,79.8523485 153.947532,81.599933 148.250279,81.599933 C136.490408,81.599933 127.797976,73.7018576 127.797976,62.2397732 L127.797976,62.0997196 C127.797976,51.4062685 135.759678,42.5999809 147.154693,42.5999809 C160.229471,42.5999809 166,52.8737458 166,60.6322423 C166,63.7072504 163.735551,65.7344674 160.814156,65.7344674 L138.827625,65.7344674 C139.923212,70.5565853 143.429292,73.0728031 148.396323,73.0728031 C151.46427,73.0728031 154.020808,72.1641161 156.285258,70.5565853 C157.088756,69.997795 157.818977,69.7181625 158.98784,69.7181625 C161.471101,69.7181625 163.297418,71.5355364 163.297418,73.9117006 C163.297418,75.3093884 162.639964,76.3576543 161.836466,77.0569729 Z M89.8781473,61.1798862 C89.8781473,54.6661534 85.8744398,50.3475891 81.0564111,50.3475891 C76.2392877,50.3475891 72.168135,54.592916 72.168135,61.1798862 L72.168135,61.3263609 C72.168135,67.8400937 76.2392877,72.1581697 81.0564111,72.1581697 C85.8744398,72.1581697 89.8781473,67.8400937 89.8781473,61.3263609 L89.8781473,61.1798862 Z M138.681581,59.0945009 L155.408483,59.0945009 C154.75103,54.3416977 151.829636,51.126636 147.154693,51.126636 C142.553026,51.126636 139.557847,54.2719083 138.681581,59.0945009 Z" id="path-1"></path>
    </defs>
    <g id="Symbols" stroke="none" stroke-width="1" fill="none" fill-rule="evenodd">
        <g id="Logo">
            <path d="" id="Path-2" fill="#222222"></path>
            <g id="Group-2">
                <g id="Group" fill-rule="nonzero" fill="#222222">
                    <path d="M5.63220008,0 C2.19240003,0 0,2.46197372 0,5.67000008 C0,8.87802644 2.19240003,11.3400002 5.63220008,11.3400002 L5.78340008,11.3400002 C9.22320012,11.3400002 11.3400002,8.87802644 11.3400002,5.67000008 C11.3400002,2.46197372 9.22320012,0 5.78340008,0 L5.63220008,0 Z" id="Shape"></path>
                    <path d="M115.6322,0 C112.1924,0 110,2.46197372 110,5.67000008 C110,8.87802644 112.1924,11.3400002 115.6322,11.3400002 L115.7834,11.3400002 C119.2232,11.3400002 121.34,8.87802644 121.34,5.67000008 C121.34,2.46197372 119.2232,0 115.7834,0 L115.6322,0 Z" id="Shape"></path>
                    <path d="M24.2637971,13.4994276 C35.7925143,18.6078295 48.306087,21.2817531 61.1855408,21.2817531 C73.8665757,21.2817531 86.1938769,18.6896606 97.5775035,13.7321567 C100.354395,12.5228362 101.625163,9.29137254 100.415843,6.51448055 C99.2065223,3.73758856 95.9750586,2.46682078 93.1981666,3.67614127 C83.1897421,8.03475258 72.35251,10.3135245 61.1855408,10.3135245 C49.8440058,10.3135245 38.8432444,7.96286124 28.7071756,3.47154515 C25.9380523,2.24454007 22.6985502,3.49467387 21.4715452,6.26379714 C20.2445401,9.03292042 21.4946739,12.2724225 24.2637971,13.4994276 Z" id="Oval"></path>
                </g>
                <mask id="mask-2" fill="white">
                    <use xlink:href="#path-1"></use>
                </mask>
                <use id="Mask" fill="#222222" xlink:href="#path-1"></use>
            </g>
        </g>
    </g>
</svg>